# xmcd
#
# Track frame offsets: 
#        150
#        21055
#        36309
#        53824
#        71710
#
# Disc length: 1174 seconds
#
# Revision: 0
# Processed by: cddbd v1.5.2PL0 Copyright (c) Steve Scherf et al.
# Submitted via: ExactAudioCopy v0.99pb4
#
DISCID=3f049405
DTITLE=Blattmann - Räubergschichte
DYEAR=2009
DGENRE=Blues
TTITLE0=Gletscher brännid
TTITLE1=Schachmatt
TTITLE2=Ziit stad still
TTITLE3=Ägeri Original
TTITLE4=Lotto
EXTD=
EXTT0=
EXTT1=
EXTT2=
EXTT3=
EXTT4=
PLAYORDER=
